<svg width="256" height="289" viewBox="0 0 256 289" fill="none" xmlns="http://www.w3.org/2000/svg">
<path d="M255.569 84.7199C255.567 79.8899 254.534 75.6219 252.445 71.9589C250.393 68.3569 247.32 65.3379 243.198 62.9509C209.173 43.3319 175.115 23.773 141.101 4.13395C131.931 -1.16005 123.04 -0.967046 113.938 4.40295C100.395 12.39 32.59 51.2369 12.385 62.9399C4.064 67.7569 0.015 75.1289 0.013 84.7109C0 124.166 0.013 163.62 0 203.076C0.002 207.8 0.991 211.985 2.988 215.593C5.041 219.304 8.157 222.406 12.374 224.847C32.58 236.55 100.394 275.394 113.934 283.383C123.04 288.756 131.931 288.948 141.104 283.652C175.119 264.012 209.179 244.454 243.209 224.835C247.426 222.395 250.542 219.291 252.595 215.583C254.589 211.975 255.58 207.79 255.582 203.065C255.582 203.065 255.582 124.176 255.569 84.7199" fill="#5C8DBC"/>
<path d="M128.182 143.509L2.98779 215.593C5.04079 219.304 8.15679 222.406 12.3738 224.847C32.5798 236.55 100.394 275.394 113.934 283.383C123.04 288.756 131.931 288.948 141.104 283.652C175.119 264.012 209.179 244.454 243.209 224.835C247.426 222.395 250.542 219.291 252.595 215.583L128.182 143.509" fill="#1A4674"/>
<path d="M91.1011 164.861C98.3861 177.579 112.081 186.157 127.791 186.157C143.598 186.157 157.371 177.47 164.619 164.616L128.182 143.509L91.1011 164.861" fill="#1A4674"/>
<path d="M255.569 84.72C255.567 79.89 254.534 75.622 252.445 71.959L128.182 143.509L252.595 215.583C254.589 211.975 255.58 207.79 255.582 203.065C255.582 203.065 255.582 124.176 255.569 84.72" fill="#1B598E"/>
<path d="M248.728 148.661H239.006V158.385H229.282V148.661H219.561V138.94H229.282V129.218H239.006V138.94H248.728V148.661ZM213.253 148.661H203.532V158.385H193.81V148.661H184.088V138.94H193.81V129.218H203.532V138.94H213.253V148.661Z" fill="white"/>
<path d="M164.619 164.616C157.371 177.47 143.598 186.157 127.791 186.157C112.081 186.157 98.386 177.579 91.101 164.861C87.4414 158.479 85.5194 151.25 85.527 143.893C85.527 120.552 104.45 101.63 127.791 101.63C143.4 101.63 157.023 110.101 164.344 122.689L201.285 101.417C186.602 76.071 159.189 59.019 127.791 59.019C80.915 59.019 42.916 97.0191 42.916 143.893C42.916 159.271 47.007 173.692 54.157 186.131C68.803 211.611 96.294 228.768 127.791 228.768C159.346 228.768 186.88 211.542 201.505 185.987L164.619 164.616Z" fill="white"/>
</svg>
