<svg width="256" height="155" viewBox="0 0 256 155" fill="none" xmlns="http://www.w3.org/2000/svg">
<g clip-path="url(#clip0)">
<path d="M60.405 40.2805H108.689V44.1185H64.831V73.002H106.074V76.8395H64.831V108.551H109.192V112.388H60.405V40.2805ZM113.015 40.2805H118.145L140.878 71.992L164.115 40.28L195.721 0L143.796 75.325L170.553 112.388H165.221L140.878 78.6575L116.435 112.388H111.204L138.163 75.3245L113.015 40.2805H113.015ZM172.464 44.1185V40.28H227.488V44.118H202.139V112.388H197.712V44.1185H172.464V44.1185ZM0 40.28H5.5325L81.8225 154.441L50.296 112.388L4.627 45.734L4.426 112.389H0V40.28ZM227.042 107.392C226.138 107.392 225.46 106.692 225.46 105.786C225.46 104.881 226.138 104.18 227.042 104.18C227.957 104.18 228.624 104.881 228.624 105.786C228.624 106.692 227.957 107.392 227.042 107.392ZM231.391 103.167H233.76C233.792 104.449 234.728 105.312 236.106 105.312C237.646 105.312 238.518 104.385 238.518 102.649V91.6545H240.929V102.66C240.929 105.786 239.121 107.587 236.128 107.587C233.318 107.587 231.391 105.84 231.391 103.166V103.167ZM244.083 103.027H246.473C246.678 104.504 248.12 105.441 250.198 105.441C252.135 105.441 253.557 104.438 253.557 103.059C253.557 101.873 252.652 101.162 250.596 100.677L248.594 100.192C245.784 99.534 244.503 98.176 244.503 95.891C244.503 93.121 246.763 91.2775 250.154 91.2775C253.308 91.2775 255.613 93.1205 255.753 95.74H253.406C253.18 94.3065 251.93 93.4115 250.122 93.4115C248.217 93.4115 246.947 94.328 246.947 95.729C246.947 96.839 247.764 97.4755 249.788 97.9495L251.5 98.37C254.687 99.114 256 100.407 256 102.746C256 105.721 253.696 107.587 250.015 107.587C246.57 107.587 244.255 105.807 244.083 103.026V103.027Z" fill="#828282"/>
</g>
<defs>
<clipPath id="clip0">
<rect width="256" height="154.5" fill="white"/>
</clipPath>
</defs>
</svg>
