<svg width="256" height="245" viewBox="0 0 256 245" fill="none" xmlns="http://www.w3.org/2000/svg">
<g clip-path="url(#clip0)">
<path d="M177.381 169.743C186.828 168.765 193.995 160.621 193.669 150.847C193.344 141.074 185.199 133.255 175.426 133.255H174.775C164.675 133.581 156.857 142.051 157.183 152.15C157.509 157.037 159.463 161.272 162.395 164.204C151.319 186.032 134.379 201.995 108.969 215.352C91.703 224.474 73.786 227.732 55.869 225.452C41.209 223.497 29.807 216.982 22.639 206.23C12.215 190.267 11.238 173 20.034 155.734C26.224 143.354 35.996 134.232 42.186 129.671C40.883 125.436 38.928 118.269 37.951 113.057C-9.28601 147.264 -4.39901 193.525 9.93499 215.352C20.685 231.642 42.512 241.741 66.619 241.741C73.134 241.741 79.649 241.089 86.165 239.461C127.864 231.316 159.464 206.556 177.381 169.743V169.743ZM234.717 129.346C209.958 100.351 173.472 84.3878 131.773 84.3878H126.561C123.629 78.5238 117.439 74.6138 110.598 74.6138H109.946C99.848 74.9398 92.03 83.4098 92.355 93.5098C92.681 103.283 100.825 111.102 110.598 111.102H111.249C118.416 110.776 124.606 106.215 127.212 100.025H133.076C157.835 100.025 181.29 107.192 202.466 121.201C218.754 131.952 230.482 145.961 236.997 162.901C242.535 176.584 242.209 189.941 236.345 201.344C227.224 218.61 211.913 228.058 191.715 228.058C178.684 228.058 166.305 224.148 159.789 221.216C156.206 224.474 149.69 229.686 145.129 232.945C159.138 239.46 173.472 243.044 187.154 243.044C218.428 243.044 241.558 225.777 250.354 208.511C259.801 189.615 259.149 157.037 234.717 129.346V129.346ZM69.225 175.28C69.551 185.054 77.695 192.872 87.468 192.872H88.12C98.219 192.547 106.037 184.076 105.711 173.977C105.386 164.203 97.241 156.385 87.468 156.385H86.817C86.165 156.385 85.187 156.385 84.537 156.71C71.18 134.557 65.642 110.45 67.597 84.3868C68.899 64.8398 75.415 47.8988 86.817 33.8898C96.264 21.8358 114.507 15.9718 126.887 15.6468C161.418 14.9948 176.077 57.9978 177.055 75.2648C181.29 76.2418 188.457 78.5228 193.344 80.1518C189.434 27.3758 156.857 0.00976562 125.584 0.00976562C96.264 0.00976562 69.225 21.1858 58.474 52.4608C43.489 94.1608 53.262 134.232 71.505 165.833C69.877 168.113 68.899 171.697 69.225 175.281V175.28Z" fill="#764ABC"/>
</g>
<defs>
<clipPath id="clip0">
<rect width="256" height="244.019" fill="white"/>
</clipPath>
</defs>
</svg>
