<svg width="256" height="192" viewBox="0 0 256 192" fill="none" xmlns="http://www.w3.org/2000/svg">
<path d="M220.394 110.198C211.442 110.249 203.692 112.399 197.189 115.601C194.788 110.849 192.386 106.7 191.988 103.6C191.538 99.9996 190.986 97.7991 191.538 93.4968C192.09 89.1945 194.59 83.0937 194.59 82.5963C194.539 82.1467 194.045 79.9461 188.888 79.895C183.73 79.8439 179.282 80.8965 178.784 82.2795C177.892 84.7771 177.174 87.3335 176.635 89.9303C175.736 94.6311 166.334 111.288 160.982 120.036C159.232 116.637 157.733 113.632 157.433 111.234C156.983 107.633 156.431 105.433 156.983 101.131C157.535 96.8283 160.035 90.7274 160.035 90.2301C159.984 89.7804 159.49 87.5799 154.333 87.5288C149.176 87.4777 144.727 88.5303 144.23 89.9133C143.732 91.2963 143.181 94.4642 142.084 97.5641C141.035 100.63 128.533 128.47 125.28 135.716C123.631 139.415 122.214 142.368 121.124 144.368C120.034 146.368 121.073 144.518 120.974 144.719L119.578 147.369V147.42C118.876 148.67 118.126 149.873 117.772 149.873C117.524 149.873 117.023 146.521 117.874 141.922C119.724 132.272 124.224 117.219 124.176 116.667C124.176 116.419 125.028 113.772 121.281 112.416C117.629 111.067 116.331 113.315 116.035 113.315C115.739 113.315 115.49 114.116 115.49 114.116C115.49 114.116 119.544 97.1621 107.737 97.1621C100.335 97.1621 90.1326 105.215 85.0844 112.566L59.5806 126.518L59.0356 125.919C44.7287 110.665 18.278 99.86 19.3782 79.3602C19.7768 71.9104 22.3759 52.2555 70.1882 28.4515C109.345 8.94988 140.701 14.2979 146.151 26.2033C153.904 43.2013 129.398 74.8127 88.6917 79.3636C73.1926 81.1145 65.0377 75.1125 62.987 72.8642C60.841 70.4797 60.5344 70.4116 59.7373 70.8647C58.4361 71.5664 59.2366 73.6647 59.7373 74.9183C60.9364 78.0692 65.937 83.6727 74.4393 86.466C81.8891 88.9186 100.09 90.2675 122.095 81.7652C146.733 72.108 165.986 45.6403 160.339 23.4816C154.582 0.927806 117.179 -6.4709 81.821 6.08169C60.7694 13.586 37.967 25.2836 21.5617 40.6328C2.06009 58.8367 -1.04314 74.7377 0.258102 81.3394C4.80906 104.895 37.2653 120.247 50.2641 131.597L48.4587 132.599C41.9593 135.801 17.205 148.752 11.0019 162.453C4.00174 177.952 12.1022 189.108 17.5013 190.607C34.2029 195.256 51.3065 186.907 60.5583 173.152C69.7555 159.4 68.6587 141.548 64.4075 133.399L64.2576 133.1L69.357 130.102C72.4593 128.28 75.5937 126.513 78.7587 124.802C77.1577 129.152 76.0097 134.306 75.4068 141.8C74.705 150.602 78.3022 162 83.0576 166.503C85.1593 168.455 87.6562 168.502 89.2095 168.502C94.7109 168.502 97.2146 163.951 99.9601 158.501C103.36 151.848 106.364 144.15 106.364 144.15C106.364 144.15 102.617 165.004 112.864 165.004C116.611 165.004 120.364 160.153 122.061 157.653V157.704C122.061 157.704 122.163 157.554 122.361 157.203C122.759 156.604 122.96 156.25 122.96 156.25V156.147C124.459 153.548 127.811 147.631 132.811 137.743C139.263 125.037 145.463 109.139 145.463 109.139C145.463 109.139 146.062 113.039 147.915 119.44C149.016 123.242 151.417 127.391 153.264 131.441L150.862 134.745L150.913 134.796C149.714 136.397 148.358 138.1 146.962 139.797C141.862 145.894 135.761 152.85 134.961 154.853C134.007 157.237 134.212 158.954 136.061 160.354C137.41 161.356 139.808 161.553 142.363 161.356C146.962 161.056 150.198 159.905 151.765 159.21C154.651 158.181 157.378 156.75 159.865 154.959C164.866 151.259 167.918 146.007 167.618 139.006C167.468 135.157 166.221 131.356 164.668 127.755L166.017 125.755C173.92 114.208 180.017 101.502 180.017 101.502C180.017 101.502 180.617 105.402 182.47 111.803C183.424 115.053 185.321 118.605 187.021 122.104C179.619 128.154 174.969 135.157 173.368 139.756C170.418 148.258 172.721 152.107 177.067 153.041C179.019 153.439 181.819 152.54 183.914 151.644C186.513 150.793 189.664 149.345 192.567 147.192C197.567 143.493 202.367 138.342 202.118 131.386C201.968 128.184 201.117 125.037 199.972 122.036C206.274 119.437 214.425 117.934 224.778 119.184C247.032 121.784 251.433 135.689 250.581 141.49C249.729 147.291 245.08 150.493 243.53 151.491C241.98 152.445 241.479 152.792 241.629 153.49C241.833 154.54 242.528 154.492 243.877 154.291C245.727 153.991 255.578 149.539 255.98 138.839C256.58 125.088 243.526 110.089 220.373 110.236L220.394 110.198ZM48.7687 168.056C41.4177 176.109 31.0656 179.161 26.6611 176.559C21.9092 173.81 23.7657 161.955 32.8131 153.405C38.3144 148.204 45.4645 143.404 50.1653 140.454L54.7163 137.705C55.016 137.501 55.217 137.405 55.217 137.405C55.5679 137.201 55.9664 136.956 56.3684 136.704C59.7203 148.905 56.5183 159.608 48.7721 168.06L48.7687 168.056ZM102.529 131.499C99.9737 137.749 94.578 153.804 91.3283 152.901C88.5282 152.152 86.8318 139.998 90.7833 128C92.7828 121.95 97.034 114.715 99.5377 111.946C103.591 107.449 107.986 105.944 109.089 107.797C110.391 110.198 104.14 127.602 102.539 131.505L102.529 131.499ZM146.883 152.704C145.783 153.249 144.782 153.657 144.329 153.351C143.978 153.146 144.778 152.397 144.778 152.397C144.778 152.397 150.331 146.446 152.531 143.697L156.881 138.145V138.744C156.881 145.945 149.98 150.745 146.88 152.697L146.883 152.704ZM181.09 144.869C180.29 144.269 180.389 142.416 183.09 136.618C184.139 134.319 186.541 130.467 190.686 126.818C191.187 128.317 191.487 129.768 191.436 131.121C191.385 140.124 184.984 143.472 181.08 144.872L181.09 144.869Z" fill="#CF649A"/>
</svg>
